<svg width="1024" height="104" viewBox="0 0 1024 104" fill="none" xmlns="http://www.w3.org/2000/svg">
<g clip-path="url(#clip0_574_5)">
<path d="M499.163 27.4046V30.6549L504.538 31.1992C505.343 31.271 506.064 31.3466 506.692 31.4184C507.319 31.4184 507.852 31.4864 508.298 31.6338C508.748 31.7056 509.111 31.8492 509.379 32.0647C509.704 32.2515 509.98 32.5132 510.184 32.8281C510.362 33.1153 510.543 33.5122 510.721 34.0186C510.902 34.5251 511.034 35.1033 511.125 35.7534C511.212 36.4752 511.257 37.2727 511.257 38.1382C511.348 38.9319 511.39 39.8011 511.39 40.7422V92.3539C511.39 93.072 511.303 93.7598 511.125 94.4099C511.038 95.0482 510.856 95.67 510.585 96.2542C510.324 96.8227 509.96 97.3379 509.511 97.7735C509.079 98.1264 508.576 98.3839 508.037 98.5294L503.865 100.268V102.762H505.479C505.694 102.683 505.922 102.646 506.151 102.653H510.044C510.672 102.577 511.303 102.543 511.926 102.543H515.691C515.953 102.471 516.224 102.434 516.496 102.434H529.531C530.067 102.434 530.604 102.471 531.141 102.547H532.486C533.023 102.615 533.514 102.653 533.96 102.653H537.324C537.589 102.653 537.857 102.691 538.125 102.762H541.753C544.444 102.762 546.95 102.687 549.278 102.543C551.697 102.471 553.98 102.29 556.13 102.003C558.19 101.64 560.205 101.243 562.177 100.808C564.222 100.379 566.241 99.8369 568.224 99.1833C572.253 97.8076 575.972 95.933 579.374 93.5444C582.936 91.0235 586.107 87.9913 588.784 84.5456C591.483 81.2145 593.573 77.434 594.96 73.3774C596.396 69.3297 597.11 65.1005 597.11 60.6899C597.11 55.5575 595.988 50.9693 593.747 46.9215C591.6 42.802 588.331 39.2947 583.943 36.4034C579.551 33.4404 574.581 31.2332 569.029 29.7895C563.564 28.3419 557.521 27.6201 550.892 27.6201H547.396C547.134 27.6921 546.863 27.7289 546.591 27.7297H542.29L538.397 27.9489H517.573C516.768 27.9489 515.914 27.9111 515.018 27.8355H510.585C510.313 27.836 510.042 27.8004 509.78 27.7297H501.314C500.591 27.6567 499.872 27.5482 499.159 27.4046H499.163ZM534.501 31.9588H539.471C545.563 31.9588 551.16 32.4653 556.266 33.4744C561.372 34.4192 565.979 35.863 570.103 37.8169C574.313 39.7671 577.45 42.9078 579.51 47.2466C581.66 51.5097 582.734 57.0088 582.734 63.7286C582.734 67.4173 582.288 70.8452 581.392 74.0275C580.589 77.1284 579.321 80.0898 577.631 82.8108C575.84 85.5803 573.563 88.0039 570.912 89.9653C568.224 91.991 565.046 93.6918 561.372 95.0675C561.104 95.1355 560.832 95.2451 560.564 95.3887C560.295 95.4605 560.072 95.5323 559.891 95.6042L559.086 95.8234L558.281 96.0388L556.671 96.4734L555.325 96.9081C553.893 97.1953 552.506 97.4485 551.16 97.6639C549.819 97.8113 548.477 97.9172 547.132 97.989L543.231 98.2082H534.365C533.828 98.2082 533.288 98.1704 532.751 98.0986H530.332C529.527 98.0268 528.771 97.955 528.053 97.8794C527.334 97.8179 526.616 97.7474 525.899 97.6677C525.303 97.5324 524.72 97.3504 524.153 97.1235V32.8281C524.693 32.6845 525.275 32.6089 525.899 32.6089C526.526 32.5371 527.248 32.4653 528.053 32.3935C528.771 32.3217 529.527 32.2839 530.336 32.2839L532.755 32.0647H533.56C533.828 32.0647 534.146 32.0344 534.505 31.9588H534.501ZM431.587 89.3606V40.9841C431.587 40.0493 431.542 39.1863 431.451 38.3952C431.451 37.5335 431.407 36.7436 431.319 36.0255C431.228 35.3779 431.095 34.8035 430.918 34.3021C430.742 33.7982 430.564 33.4026 430.385 33.1153C430.209 32.8281 429.942 32.5761 429.584 32.3595C429.317 32.1453 428.962 32.0029 428.518 31.9324C428.072 31.7888 427.538 31.717 426.916 31.717C426.294 31.6414 425.583 31.5683 424.784 31.4977L418.382 30.9611V27.7297C419.004 27.8733 419.627 27.9804 420.249 28.0509H425.85L429.584 28.2664H454.921L458.123 28.0509H467.594C468.216 28.0509 468.793 28.0144 469.325 27.9413H476.929C477.639 28.0144 478.35 28.0509 479.061 28.0509H481.328C482.84 28.0509 484.264 28.0862 485.599 28.1568C486.932 28.1568 488.265 28.1945 489.598 28.2701L488.796 30.8515C488.62 31.7132 488.444 32.6114 488.267 33.5462L487.999 35.058C487.999 35.4863 487.954 35.9159 487.863 36.3467C487.863 36.8507 487.819 37.3546 487.731 37.8585V39.2569L487.466 40.7686V44.6425L482.798 44.4271V37.4239C482.798 37.1366 482.753 36.8847 482.662 36.668C482.662 36.3833 482.618 36.096 482.53 35.8063C482.442 35.5216 482.308 35.3074 482.129 35.1638C482.041 34.9471 481.864 34.8022 481.596 34.7291C480.44 34.3714 479.239 34.0841 477.995 33.8674C476.75 33.5802 475.417 33.366 473.996 33.2249C473.283 33.1494 472.571 33.1116 471.861 33.1116L469.725 32.8999C468.927 32.8268 468.171 32.7903 467.458 32.7903L465.326 32.5749H463.992C463.549 32.5749 463.148 32.5384 462.79 32.4653H453.591C453.324 32.5384 453.013 32.5749 452.658 32.5749H451.724C451.102 32.5749 450.479 32.6102 449.857 32.6807C449.235 32.6807 448.612 32.7172 447.99 32.7903L446.92 33.0057H446.123L445.053 33.2212C444.786 33.2212 444.52 33.2577 444.256 33.3308V61.8842C445.322 62.0279 446.433 62.1349 447.589 62.2055C448.743 62.2786 449.943 62.3151 451.187 62.3151C452.435 62.3856 453.77 62.4209 455.194 62.4209H459.725C461.768 62.4209 463.591 62.3856 465.194 62.3151C466.794 62.242 468.172 62.1702 469.329 62.0997C470.483 61.9535 471.415 61.8452 472.125 61.7746C472.927 61.631 473.506 61.4521 473.864 61.238C474.04 61.0918 474.172 60.9482 474.261 60.8071C474.351 60.661 474.44 60.4808 474.525 60.2666C474.616 60.0525 474.661 59.8005 474.661 59.5108C474.752 59.153 474.84 58.7939 474.926 58.4336L475.595 52.6133H479.597V53.9097C479.506 54.1238 479.461 54.3393 479.461 54.5559V57.1411L479.197 59.2953V68.347C479.197 68.6343 479.241 68.958 479.329 69.3183V72.3343C479.329 72.6215 479.373 72.9453 479.461 73.3056V75.8907C479.461 76.0344 479.506 76.178 479.597 76.3216V77.2891L475.595 77.0737L474.93 70.7167C474.841 70.4295 474.753 70.1775 474.665 69.9608C474.665 69.6761 474.62 69.4254 474.529 69.2087C474.441 68.992 474.353 68.8119 474.264 68.6683C474.174 68.4541 474.039 68.3118 473.86 68.2412C473.507 68.0245 472.93 67.8444 472.129 67.7007C471.416 67.4866 470.483 67.343 469.329 67.2699C468.17 67.1263 466.791 67.0545 465.194 67.0545C463.594 66.9814 461.771 66.9449 459.725 66.9449H455.19C454.389 67.0179 453.633 67.0545 452.922 67.0545H451.055C449.81 67.0545 448.61 67.091 447.453 67.1641C446.299 67.1641 445.234 67.1993 444.256 67.2699V97.2255L445.053 97.6564C445.409 97.7269 445.765 97.7622 446.123 97.7622L446.92 97.9814H447.99L449.857 98.1968C450.479 98.2674 451.102 98.3027 451.724 98.3027H461.993C464.303 98.3027 466.525 98.2674 468.66 98.1968C470.882 98.0532 472.972 97.9449 474.93 97.8718C476.973 97.7282 478.573 97.5846 479.729 97.4409C480.974 97.2973 481.864 97.1184 482.398 96.9043C482.841 96.6876 483.286 96.2567 483.732 95.6117C484.264 94.9642 484.707 94.1012 485.062 93.0228C485.508 91.9469 485.865 90.7262 486.132 89.3606C486.485 87.9244 486.796 86.4164 487.065 84.8366L491.733 84.6212C491.466 85.5534 491.243 86.4857 491.064 87.4179C490.888 88.2822 490.711 89.2169 490.535 90.2223L490.267 91.734C490.267 92.1624 490.221 92.592 490.13 93.0228L489.866 94.5346V95.933C489.866 96.2202 489.822 96.5074 489.734 96.7947V97.5506C489.643 97.8378 489.598 98.125 489.598 98.4123V102.29H485.331C485.064 102.29 484.752 102.326 484.397 102.4H480.531C479.997 102.4 479.417 102.435 478.792 102.505H472.927C472.304 102.505 471.682 102.542 471.06 102.615H458.391C457.947 102.542 457.503 102.505 457.057 102.505H450.923L446.524 102.29H427.453L425.317 102.505H421.716C421.539 102.505 421.363 102.542 421.186 102.615H419.985V99.3798L424.784 99.0585C425.586 99.1316 426.297 99.1316 426.92 99.0585C427.542 98.9149 428.075 98.8078 428.518 98.7373C428.964 98.5937 429.32 98.4501 429.584 98.3064C429.942 98.1628 430.209 97.9474 430.385 97.6602C430.562 97.3729 430.739 97.0139 430.918 96.583C431.095 96.0791 431.228 95.4681 431.319 94.75C431.407 94.0319 431.451 93.242 431.451 92.3803C431.542 91.5186 431.587 90.5851 431.587 89.5798V89.3606ZM369.805 88.9448V40.7838C369.717 40.3554 369.673 39.9271 369.673 39.4988V38.1004L369.408 35.5304C369.408 34.6737 369.363 33.8511 369.272 33.0624L348.516 32.847C347.533 32.9906 346.685 33.1342 345.972 33.2779C345.347 33.4215 344.856 33.6356 344.498 33.9204C344.143 34.2076 343.831 34.5654 343.561 34.9937C343.385 35.422 343.251 35.9587 343.16 36.6037L342.624 44.8618H338.474V40.6779L338.209 37.4617C338.209 36.3883 338.164 35.315 338.073 34.2416L337.805 31.0253C337.805 29.952 337.717 28.8799 337.54 27.809H341.154C341.778 27.8796 342.358 27.9149 342.892 27.9149H352C353.248 27.9854 354.452 28.0572 355.614 28.1303H366.46L385.875 27.9149C387.125 28.0585 388.329 28.1303 389.488 28.1303H396.718L400.335 27.9149H409.308C409.933 27.9149 410.557 27.8796 411.182 27.809H414.795C414.707 28.8799 414.574 29.952 414.395 31.0253L414.126 34.2416L413.862 37.4617V45.0772L409.705 44.8618L409.175 36.3883C409.085 35.8894 408.95 35.4246 408.771 34.9937C408.592 34.5654 408.324 34.2076 407.966 33.9204C407.611 33.6356 407.075 33.4215 406.36 33.2779C405.647 33.1368 404.799 33.0662 403.816 33.0662L383.063 32.8508L382.795 35.5342C382.704 36.3908 382.659 37.2475 382.659 38.1042C382.571 38.9634 382.527 39.8931 382.527 40.8934V91.9532C382.615 92.8099 382.703 93.596 382.791 94.3116C382.882 95.0272 382.973 95.6344 383.063 96.1333C383.24 96.5616 383.463 96.9194 383.732 97.2066C383.909 97.4939 384.176 97.7446 384.534 97.9587L385.607 98.3858C386.053 98.4589 386.588 98.5672 387.213 98.7108C387.838 98.7814 388.552 98.8167 389.356 98.8167L395.781 98.9225V102.143L390.694 101.927H385.743C384.136 101.857 382.528 101.821 380.92 101.821H368.868C368.334 101.821 367.798 101.857 367.262 101.927H360.164C359.005 102 357.801 102.072 356.551 102.143V98.9225L362.976 98.6012C363.782 98.6743 364.496 98.6743 365.119 98.6012C365.744 98.5307 366.279 98.4601 366.725 98.3896C367.174 98.246 367.531 98.1023 367.798 97.9587C368.156 97.7446 368.423 97.4951 368.6 97.2104C368.779 96.9232 368.957 96.5654 369.136 96.1371C369.313 95.6356 369.446 95.0272 369.537 94.3116C369.628 93.596 369.673 92.8099 369.673 91.9532C369.761 91.0966 369.805 90.1668 369.805 89.164V88.9448ZM295.151 27.7032V30.9346L301.387 31.4713C302.165 31.5431 302.857 31.6149 303.461 31.6867C304.066 31.6867 304.588 31.7585 305.019 31.9021C305.397 31.9512 305.756 32.0999 306.058 32.333C306.406 32.5484 306.663 32.7979 306.836 33.0851C307.01 33.3723 307.18 33.7654 307.354 34.2681C307.528 34.7669 307.657 35.3452 307.744 35.9877C307.83 36.7058 307.876 37.4919 307.876 38.3536C307.963 39.1435 308.004 40.0014 308.004 40.9349V89.4399C308.004 90.4415 307.963 91.375 307.876 92.2367C307.876 93.0946 307.834 93.8845 307.744 94.6026C307.66 95.3207 307.528 95.9254 307.354 96.4318C307.21 96.8014 307.037 97.159 306.836 97.5014C306.641 97.8118 306.374 98.071 306.058 98.2573C305.801 98.4009 305.453 98.5445 305.019 98.6882C304.501 98.772 303.982 98.8438 303.461 98.9036C302.857 98.9792 302.165 98.9792 301.383 98.9036L299.693 98.9905L298.091 98.673C297.372 98.5332 296.681 98.2793 296.042 97.9209C295.402 97.4902 294.846 96.9458 294.402 96.3147L263.426 64.7717H263.566C263.657 64.7717 263.744 64.7339 263.834 64.6659C267.111 64.1632 270.252 63.3771 273.253 62.3038C276.253 61.1598 279.133 59.7216 281.851 58.0103C284.58 56.2945 286.628 54.2574 287.992 51.8952C289.363 49.515 290.07 46.8108 290.041 44.0643V43.5276C289.946 43.4558 289.901 43.384 289.901 43.3122V41.9176C289.602 40.1381 288.901 38.4501 287.852 36.9817C286.653 35.2218 285.179 33.6651 283.487 32.3708C281.579 30.9384 278.986 29.865 275.709 29.1507C272.432 28.3646 268.43 27.9678 263.698 27.9678H260.561C260.202 28.0409 259.836 28.0789 259.469 28.0812H254.556L250.463 28.289H226.577C225.398 28.2172 224.169 28.1492 222.896 28.0774H217.166C216.567 28.0121 215.973 27.9035 215.39 27.7524V30.9762L220.983 31.5129C221.803 31.5847 222.533 31.6527 223.168 31.7245C223.803 31.7245 224.351 31.7963 224.804 31.9399C225.258 32.0118 225.624 32.1554 225.9 32.3708C226.227 32.5536 226.505 32.8114 226.713 33.1229C226.898 33.4064 227.08 33.7994 227.261 34.2983C227.442 34.801 227.578 35.3717 227.669 36.0142C227.76 36.7322 227.809 37.5184 227.809 38.3763C227.9 39.1624 227.945 40.0241 227.945 40.9538V89.3417C227.945 90.3432 227.9 91.2729 227.809 92.1309C227.809 92.9888 227.76 93.7749 227.669 94.4892C227.578 95.2073 227.442 95.812 227.261 96.3147C227.108 96.6868 226.925 97.0458 226.713 97.388C226.504 97.7 226.225 97.9578 225.897 98.1401C225.546 98.315 225.18 98.4592 224.804 98.571C224.351 98.639 223.803 98.7146 223.168 98.7826C222.529 98.8582 221.807 98.8582 220.983 98.7826L214.434 99.1077V102.324L218.119 102.109H225.349C225.897 102.037 226.445 102.003 226.989 102.003H239.272C240.908 102.003 242.545 102.04 244.185 102.109H249.234L254.42 102.324V99.1077L247.87 98.9943C247.05 98.9943 246.321 98.9603 245.686 98.8922C245.144 98.768 244.598 98.6608 244.049 98.571L242.957 98.1401C242.627 97.9567 242.346 97.6976 242.137 97.3843C241.847 97.0718 241.617 96.7094 241.456 96.3147C241.348 95.7075 241.256 95.0975 241.181 94.4854C241.08 93.7003 240.988 92.9141 240.905 92.1271V33.327C241.906 33.1834 242.862 33.0435 243.769 32.8999C244.771 32.6845 245.818 32.5409 246.906 32.4691C248.002 32.3254 249.185 32.2196 250.459 32.1478C251.823 32.076 253.278 32.042 254.824 32.042H255.644C258.129 32.0923 260.6 32.4155 263.014 33.0057C265.365 33.5028 267.653 34.2595 269.836 35.262C272.021 36.3354 273.657 37.832 274.749 39.7633C275.842 41.6946 276.39 44.0567 276.39 46.8459C276.39 48.849 275.936 50.6745 275.021 52.3223C274.205 53.9664 272.882 55.4668 271.064 56.8236C269.333 58.1842 267.429 59.2916 265.335 60.1495C263.171 60.9541 260.929 61.5292 258.645 61.8653L257.829 62.0808H256.597C256.468 62.141 256.33 62.1793 256.189 62.1941H255.916L254.552 62.402H247.454C247.168 62.3267 246.892 62.2189 246.63 62.0808L245.814 63.585L246.362 64.2275L247.178 64.8738C247.346 64.9335 247.489 65.0463 247.587 65.195C247.677 65.3386 247.813 65.4444 247.999 65.5162L248.271 65.9471C248.438 66.0071 248.581 66.1199 248.679 66.2684C249.042 66.5556 249.412 66.8731 249.775 67.2321C250.138 67.5193 250.501 67.8406 250.867 68.1996C251.23 68.4869 251.547 68.8081 251.82 69.1672L252.916 70.0251L278.022 96.738C278.202 96.879 278.343 97.0638 278.43 97.2747C278.59 97.3944 278.728 97.54 278.839 97.7055C279.024 97.8491 279.205 98.0268 279.387 98.2422L279.931 98.6693C279.931 98.7448 279.98 98.8129 280.071 98.8847L280.339 99.1001V99.3155H280.615V99.5272C280.706 99.5272 280.796 99.565 280.887 99.6406C280.996 99.7302 281.089 99.8375 281.163 99.958C281.254 100.102 281.39 100.207 281.571 100.279L281.843 100.71C282.011 100.77 282.154 100.883 282.251 101.031C282.437 101.319 282.618 101.568 282.799 101.787C283.072 101.927 283.344 102.105 283.616 102.32H284.436C284.512 102.254 284.608 102.216 284.708 102.211H287.165C291.813 102.211 295.445 102.229 298.654 102.233H305.533C306.05 102.161 306.568 102.127 307.09 102.127H318.772C320.333 102.127 321.886 102.165 323.443 102.233H328.251L333.179 102.449V99.2248L326.95 99.1152C326.172 99.1152 325.48 99.0812 324.872 99.0094C324.356 98.8852 323.837 98.778 323.315 98.6882L322.275 98.2573C321.961 98.0704 321.695 97.8113 321.501 97.5014C321.222 97.1851 321.002 96.8216 320.851 96.4281C320.749 95.8206 320.662 95.2106 320.59 94.5988C320.503 93.8807 320.42 93.0908 320.333 92.2291V38.3498C320.446 36.9811 320.619 35.6179 320.851 34.2643C320.986 33.8303 321.207 33.428 321.501 33.0813C321.695 32.7726 321.961 32.5148 322.275 32.3292C322.594 32.1256 322.946 31.9797 323.315 31.8984C323.522 31.8198 323.743 31.7826 323.965 31.7888C324.229 31.717 324.532 31.6489 324.872 31.5733H325.783C326.217 31.5015 326.607 31.3957 326.954 31.2521L333.179 30.9308V27.9186L328.251 28.1341H323.443C321.886 28.2059 320.333 28.2437 318.772 28.2437H307.093C306.576 28.2437 306.054 28.2059 305.536 28.1303H302.158C301.035 28.1303 299.867 28.1001 298.658 28.0283C297.532 27.9527 296.36 27.8468 295.151 27.7032ZM200.253 40.9312V92.2291C200.341 93.0883 200.43 93.877 200.518 94.595C200.601 95.3131 200.687 95.9229 200.775 96.4243C200.946 96.8526 201.162 97.2104 201.421 97.4976C201.597 97.7849 201.858 98.0368 202.203 98.2535L203.239 98.6806C203.672 98.7537 204.193 98.862 204.8 99.0056C205.405 99.0762 206.098 99.1115 206.879 99.1115L213.107 99.2173V102.445L208.175 102.229H203.371C201.812 102.159 200.253 102.124 198.696 102.124H187.014C186.495 102.124 185.976 102.159 185.457 102.229H178.578C177.452 102.303 176.283 102.374 175.071 102.445V99.2173L181.303 98.896C182.082 98.9666 182.775 98.9666 183.382 98.896C183.989 98.8255 184.507 98.7537 184.935 98.6806C185.369 98.537 185.715 98.3934 185.975 98.2497C186.322 98.0356 186.582 97.7849 186.753 97.4976C186.927 97.2104 187.101 96.8526 187.275 96.4243C187.446 95.9204 187.576 95.3106 187.664 94.595C187.75 93.877 187.793 93.0883 187.793 92.2291C187.878 91.3674 187.921 90.4352 187.921 89.4324V40.9312C187.921 39.9989 187.878 39.1385 187.793 38.3498C187.793 37.4906 187.75 36.702 187.664 35.9839C187.576 35.3389 187.446 34.7657 187.275 34.2643C187.101 33.7604 186.927 33.366 186.753 33.0813C186.582 32.7941 186.322 32.5421 185.975 32.3254C185.715 32.1113 185.369 31.9689 184.935 31.8984C184.504 31.7547 183.985 31.6829 183.378 31.6829C182.773 31.6099 182.081 31.5381 181.3 31.4675L175.071 30.9271V27.7032C176.28 27.8468 177.448 27.9539 178.575 28.0245C179.786 28.0975 180.956 28.1341 182.082 28.1341H185.457C185.976 28.2046 186.495 28.2399 187.014 28.2399H198.696C200.253 28.2399 201.812 28.2046 203.371 28.1341H208.171L213.107 27.9186V30.9271L206.875 31.2521C206.53 31.3957 206.14 31.5028 205.707 31.5733H204.8C204.452 31.6439 204.15 31.7157 203.893 31.7888C203.631 31.7888 203.413 31.824 203.239 31.8946C202.894 31.9677 202.549 32.1113 202.203 32.3254C201.856 32.5421 201.596 32.7941 201.425 33.0813C201.165 33.366 200.949 33.7591 200.775 34.2605C200.687 34.7644 200.6 35.3389 200.514 35.9839C200.428 36.6995 200.341 37.4881 200.253 38.3498V41.1466V40.9312ZM119.132 34.3701V92.883C119.223 93.7346 119.313 94.5157 119.404 95.2262C119.495 95.9342 119.585 96.5364 119.676 97.0328C119.858 97.4586 120.083 97.8138 120.353 98.0986C120.534 98.3808 120.805 98.6289 121.165 98.8431L122.25 99.2664C122.701 99.337 123.243 99.444 123.875 99.5877C124.505 99.6582 125.227 99.6935 126.041 99.6935L132.541 99.7993V102.989L127.394 102.777H122.382C120.757 102.707 119.132 102.672 117.507 102.672H105.322C104.78 102.672 104.239 102.707 103.697 102.777H96.5197C95.3456 102.848 94.1274 102.919 92.865 102.989V99.7993L99.3656 99.478C100.177 99.5486 100.899 99.5486 101.531 99.478C102.164 99.4075 102.705 99.337 103.156 99.2664C103.607 99.1253 103.968 98.9842 104.237 98.8431C104.6 98.6289 104.871 98.3808 105.05 98.0986C105.231 97.8138 105.413 97.4586 105.594 97.0328C105.773 96.5364 105.908 95.933 105.998 95.2224C106.089 94.5144 106.135 93.7346 106.135 92.883C106.225 92.0313 106.271 91.1092 106.271 90.1164V42.133C106.271 41.3519 106.225 40.5721 106.135 39.7936C106.135 38.9419 106.044 38.1609 105.862 37.4503C105.772 36.7448 105.637 36.1779 105.458 35.7496C105.277 35.2532 105.095 34.8627 104.914 34.578C104.644 34.2958 104.329 34.0489 103.969 33.8372C103.697 33.623 103.335 33.4454 102.884 33.3043C102.524 33.1632 101.982 33.0561 101.259 32.9831C100.629 32.9125 99.9073 32.842 99.0935 32.7714L92.9973 32.2423V29.0487C93.7204 29.1898 94.4436 29.2956 95.1667 29.3662H101.531L105.59 29.5816H129.019C130.372 29.511 131.681 29.4392 132.946 29.3662H137.549C137.909 29.3662 138.27 29.3309 138.63 29.2603H143.369C143.551 29.3309 143.687 29.3662 143.778 29.3662H144.182C147.163 29.5098 150.051 29.9356 152.848 30.6436C155.647 31.3541 158.311 32.3469 160.838 33.6218C163.365 34.8992 165.261 36.5307 166.526 38.5161C167.791 40.5016 168.423 42.8423 168.423 45.5383C168.423 48.8717 167.61 51.9204 165.985 54.6844C164.36 57.4535 161.967 59.9013 158.804 62.0279C155.647 64.1569 152.173 65.7531 148.381 66.8164C144.589 67.8796 140.437 68.4113 135.924 68.4113H133.891C133.261 68.4113 132.584 68.376 131.861 68.3055C131.231 68.2349 130.555 68.1644 129.831 68.0938C129.199 67.9502 128.521 67.8431 127.798 67.7726L126.445 63.7286C127.166 64.0133 127.888 64.2275 128.611 64.3711C129.425 64.5122 130.193 64.6533 130.916 64.7944L133.078 65.006H135.383C138.089 65.006 140.571 64.652 142.829 63.944C145.175 63.1629 147.296 62.0291 149.193 60.5425C151.088 59.0509 152.487 57.3477 153.389 55.4328C154.384 53.5179 154.881 51.4266 154.881 49.1589C154.881 46.3899 154.385 44.0126 153.392 42.0272C152.397 40.0417 150.907 38.4103 148.921 37.1329C146.936 35.8554 144.589 34.898 141.88 34.2605C139.262 33.623 136.284 33.3043 132.946 33.3043C131.409 33.3043 129.964 33.3396 128.611 33.4101C127.348 33.4807 126.176 33.5865 125.092 33.7276C124.009 33.7982 122.971 33.9405 121.978 34.1547C121.073 34.2958 120.125 34.4369 119.132 34.578V34.3701ZM75.1925 25.4885H69.5045L68.4387 17.461L68.0834 16.3347C68.0834 15.8636 67.965 15.4403 67.7282 15.0649C67.6097 14.5962 67.4321 14.2208 67.1953 13.9386C66.9559 13.5632 66.6586 13.1878 66.3033 12.8123L65.2375 11.9657C64.8848 11.6861 64.469 11.4051 63.9903 11.1229C63.5192 10.8407 62.9875 10.5585 62.3954 10.2764C61.9217 9.99667 61.3296 9.66913 60.6191 9.2937C59.5508 8.82254 58.4245 8.39924 57.2403 8.02382C56.0561 7.6484 54.7522 7.32085 53.3286 7.04117C52.6181 6.8522 51.9063 6.7111 51.1932 6.61788C50.4827 6.52213 49.8314 6.42765 49.2393 6.33442C48.5288 6.33442 47.817 6.28781 47.1039 6.19458C46.3909 6.10136 45.6803 6.05475 44.9723 6.05475H44.4394C44.321 6.05475 44.2026 6.00813 44.0842 5.91491H40.3501C40.1133 6.00813 39.9356 6.05475 39.8172 6.05475H37.6856C34.8385 6.33442 32.1122 6.99078 29.507 8.02382C26.8992 8.96363 24.4098 10.2789 22.0388 11.9695C19.6704 13.6577 17.8941 15.7237 16.7099 18.1678C15.5231 20.6067 14.9298 23.3745 14.9298 26.4711C14.9298 28.8194 15.4035 30.9787 16.3508 32.949C17.4191 34.9219 19.0191 36.6126 21.1507 38.021C23.2848 39.5227 26.2479 40.7901 30.0399 41.8231C33.9503 42.7604 38.6909 43.4646 44.2618 43.9358C50.5432 44.4977 56.172 45.2951 61.1482 46.3282C66.1269 47.3612 70.4531 48.6752 74.1267 50.2701C77.8003 51.7743 80.5265 53.9336 82.3054 56.748C84.2001 59.5649 85.1475 62.9916 85.1475 67.028C85.1475 72.9441 83.7844 78.108 81.0582 82.5198C78.3345 86.8384 74.3056 90.4528 68.9716 93.363C63.5192 96.2731 57.8311 98.479 51.9075 99.9807C45.9839 101.482 39.821 102.281 33.4187 102.377H31.4609C28.9741 102.377 26.5452 102.282 24.1742 102.093C21.9217 101.907 19.6099 101.579 17.239 101.111C16.0548 100.922 14.9298 100.733 13.864 100.544L11.0181 99.9807C9.95229 99.701 9.00491 99.5133 8.17596 99.4176L5.68533 98.8582C5.44849 98.7625 5.21164 98.7146 4.9748 98.7146L4.26427 98.4349H3.55374C3.43532 98.3417 3.25769 98.2472 3.02084 98.1515C2.66558 97.965 2.31031 97.8252 1.95505 97.732C1.59727 97.543 1.29995 97.4019 1.06311 97.3087C1.18153 96.84 1.24074 96.3701 1.24074 95.899L1.59979 94.493V93.9261C1.59979 93.6464 1.65774 93.3655 1.77364 93.0833V92.5202C1.89206 92.238 1.95127 92.0036 1.95127 91.8172V89.0015L2.31031 86.1859V75.7622L7.99833 75.4826L9.41939 84.916C9.65623 86.5134 10.5457 88.0164 12.0877 89.4248C13.7456 90.7375 16.056 91.957 19.0191 93.0833C21.9822 94.2095 25.0636 95.0536 28.2635 95.6155C31.4634 96.1824 34.841 96.4659 38.3961 96.4659C42.4275 96.4659 46.2195 95.9959 49.7722 95.0561C53.4458 94.1163 56.943 92.7079 60.2638 90.8308C63.5822 88.9537 66.0703 86.7011 67.7282 84.0732C69.3886 81.352 70.2188 78.2529 70.2188 74.7758C70.2188 71.4902 69.4478 68.6746 67.9058 66.3288C66.4847 63.9805 64.2927 62.1967 61.3296 60.9772C58.3666 59.6619 54.989 58.5823 51.197 57.7382C47.5234 56.8941 43.4341 56.2844 38.929 55.909C31.9371 55.2514 25.9531 54.3115 20.9768 53.0895C15.9981 51.7768 11.968 50.2273 8.88649 48.4409C5.92343 46.5663 3.67216 44.2671 2.13268 41.5434C0.709104 38.7265 -0.00268555 35.4875 -0.00268555 31.8266C-0.00268555 26.9461 1.00516 22.6753 3.02084 19.0144C5.03653 15.2576 8.0588 12.1119 12.0877 9.57716C16.1165 7.04243 20.3243 5.02423 24.7109 3.52254C29.2109 1.92511 33.8898 0.845455 38.7476 0.283583H39.4582C39.8134 0.283583 40.1095 0.23697 40.3463 0.143745H42.837C43.1897 0.143745 43.545 0.0971318 43.9028 0.00390625H45.5014C47.9908 0.00390625 50.3618 0.0971318 52.6143 0.283583C54.9827 0.472553 57.234 0.800103 59.3681 1.26623C61.5022 1.64417 63.5179 2.06747 65.4152 2.53611C67.3099 2.91405 69.0862 3.33735 70.7441 3.806L72.5205 4.36535C73.2335 4.55432 73.8269 4.74329 74.3006 4.93226L75.0111 5.21194L76.0769 5.49161L76.7874 5.77507C77.1452 5.77507 77.4425 5.82168 77.6794 5.91491C77.3241 7.13692 77.0268 8.31106 76.7874 9.43732C76.669 10.5636 76.4926 11.6899 76.2583 12.8161C76.1374 13.9424 75.9585 15.0686 75.7216 16.1949L75.3664 19.294V20.8436C75.2479 21.1233 75.1887 21.4042 75.1887 21.6864V25.7682V25.4885H75.1925Z" fill="white"/>
<path d="M891.882 26.9659L887.536 27.1814L886.447 29.1353L885.634 31.0931L884.55 33.0508C884.269 33.7206 883.951 34.3742 883.597 35.0085L883.057 36.0932L882.516 37.1779C882.258 37.5199 882.03 37.8841 881.836 38.2664L881.292 39.3511C880.92 40.0956 880.512 40.8221 880.071 41.528C879.698 42.2701 879.289 42.9941 878.847 43.6974L877.762 45.4359L876.949 47.1782L875.865 48.9168L875.045 50.4361L850.883 94.6666C850.527 95.3818 850.068 96.0413 849.522 96.6243C849.069 97.2026 848.528 97.7468 847.897 98.2495C847.262 98.7597 846.586 99.1565 845.86 99.4475C845.129 99.739 844.338 99.8517 843.554 99.7763L838.528 100.101V103.363H839.885C840.056 103.291 840.239 103.252 840.425 103.25H843.683C844.499 103.182 845.316 103.106 846.128 103.034H860.925L863.642 103.253H867.308C867.583 103.254 867.856 103.291 868.121 103.363H869.75V100.101L864.727 99.9955C863.775 99.9329 862.824 99.8599 861.873 99.7763C861.179 99.6637 860.498 99.4813 859.84 99.2321C859.358 99.1253 858.928 98.8573 858.619 98.4724C858.341 98.0153 858.199 97.4881 858.211 96.9531C858.211 96.7339 858.256 96.4429 858.347 96.0839C858.438 95.6454 858.574 95.1768 858.755 94.6666C858.937 94.0883 859.163 93.5101 859.436 92.928L860.248 91.1895V91.0837C860.248 91.0119 860.294 90.9438 860.384 90.8683C860.475 90.7964 860.52 90.7246 860.52 90.6528V90.324C860.591 90.2017 860.682 90.0919 860.789 89.999L861.065 89.3452C861.166 89.1096 861.303 88.8905 861.469 88.6951C861.576 88.5217 861.668 88.3396 861.745 88.1509L862.009 87.5008C862.104 87.2816 862.198 87.1002 862.285 86.9566C862.376 86.7374 862.467 86.5597 862.554 86.4123C862.554 86.2687 862.603 86.1251 862.693 85.9777C862.799 85.8054 862.89 85.6246 862.966 85.4372L866.768 78.1543H905.869L912.109 90.872V90.9779H912.245V91.4125C912.336 91.4881 912.427 91.5259 912.517 91.5259V91.8471H912.653V91.9567L913.47 93.6953C913.742 94.2017 914.01 94.7459 914.282 95.328C914.464 95.8344 914.6 96.3031 914.687 96.7377C914.863 97.074 914.957 97.4468 914.963 97.8262C914.963 98.1172 914.781 98.4044 914.418 98.6954C914.08 99.0212 913.657 99.2463 913.198 99.3455C912.653 99.5647 912.064 99.7083 911.429 99.7801C910.798 99.8557 910.121 99.8557 909.396 99.7801L903.016 100.109V103.371H904.777C905.14 103.295 905.458 103.257 905.733 103.257H909.94L912.926 103.042H930.167L933.153 103.261H936.819C937.094 103.262 937.367 103.299 937.632 103.371H939.124V100.109L934.514 99.9955C933.907 99.9317 933.313 99.7868 932.745 99.5647C932.276 99.3395 931.822 99.0858 931.384 98.805C930.999 98.4201 930.593 98.0568 930.167 97.7166C929.788 97.259 929.426 96.7875 929.083 96.3031C928.885 96.0622 928.703 95.8084 928.538 95.5434L927.998 94.6741L927.454 93.8049C927.288 93.4702 927.106 93.1436 926.909 92.826C926.745 92.49 926.565 92.1621 926.369 91.8434C926.203 91.511 926.022 91.1869 925.825 90.872L925.553 90.4374L925.281 89.7836C925.19 89.6376 925.099 89.4915 925.008 89.3452L924.74 88.6989L891.882 26.9659ZM886.315 41.4222L903.42 73.8042H869.073L886.315 41.4222ZM944.945 17.3209L970.992 54.5481L989.754 31.3009C991.573 29.2097 993.333 27.0705 995.033 24.8835C996.734 22.6965 998.373 20.4616 999.95 18.1788C1001.65 15.896 1003.23 13.6133 1004.69 11.3305L1009.42 4.486L1024 4.19876V6.33791C1022.78 7.57504 1021.51 8.81217 1020.17 10.0493C1018.96 11.2839 1017.68 12.5676 1016.35 13.9005C1015.01 15.2309 1013.61 16.6091 1012.15 18.0352C1010.82 19.3655 1009.48 20.7438 1008.15 22.1699L1007.06 23.3113C1006.69 23.6917 1006.39 24.0256 1006.15 24.3128C1005.78 24.6907 1005.42 25.0699 1005.05 25.4504L1003.96 26.5918C1003.23 27.2595 1002.5 27.9725 1001.77 28.7309C1001.17 29.3986 1000.56 30.1129 999.954 30.8739C997.767 33.3431 995.642 35.8148 993.578 38.2891C991.512 40.6651 989.57 42.9957 987.75 45.281C985.808 47.657 984.107 49.8427 982.648 51.8383C981.313 53.8363 980.16 55.6429 979.19 57.2579C978.704 58.2103 978.278 59.1615 977.913 60.1114C977.55 60.9681 977.247 61.8247 977.006 62.6814C976.882 63.6313 976.76 64.5333 976.639 65.3875V90.067C976.76 91.2059 976.881 92.2515 977.002 93.2039C977.125 94.1538 977.247 94.9614 977.368 95.6265C977.61 96.1985 977.913 96.6747 978.275 97.0552C978.52 97.4331 978.885 97.7657 979.371 98.0529L980.827 98.6198C981.434 98.7156 982.162 98.8592 983.011 99.0507C983.863 99.1464 984.835 99.1943 985.929 99.1943L994.671 99.3341V103.616L987.747 103.329H981.008C978.824 103.233 976.638 103.185 974.451 103.185H958.059C957.331 103.185 956.603 103.233 955.875 103.329H946.222C944.642 103.425 943.002 103.52 941.301 103.616V99.3341L950.047 98.9071C951.138 99.0028 952.108 99.0028 952.957 98.9071C953.809 98.8113 954.538 98.7168 955.145 98.6236C955.753 98.4321 956.239 98.2419 956.604 98.0529C957.088 97.7682 957.452 97.4356 957.697 97.0552C957.938 96.6747 958.182 96.1985 958.426 95.6265C958.668 94.9614 958.849 94.1538 958.97 93.2039C959.091 92.2515 959.152 91.2059 959.152 90.067C959.275 88.9256 959.337 87.6885 959.337 86.3556V65.8183C959.337 65.4379 959.275 65.0095 959.152 64.5333C959.152 63.9639 959.091 63.4411 958.97 62.9649C958.849 62.4886 958.668 62.0603 958.426 61.6799C958.182 61.2062 957.938 60.7778 957.697 60.3949L935.111 29.3054C932.803 26.2617 930.496 23.5985 928.191 21.3157C925.883 18.9397 923.697 17.0374 921.633 15.6088C919.446 14.1827 917.504 13.0905 915.806 12.3321C914.226 11.5711 912.89 11.1428 911.799 11.0471L906.516 10.3328V6.19807L927.461 2.77393V3.06116H927.643C927.764 3.06116 927.885 3.01329 928.005 2.91754H928.372C928.977 3.01329 929.584 3.15565 930.194 3.34462C930.922 3.53611 931.529 3.82082 932.015 4.19876C932.62 4.57922 933.166 5.00756 933.652 5.48376C934.259 5.86423 934.806 6.29256 935.292 6.76876C935.413 6.86451 935.534 7.00687 935.655 7.19584C935.776 7.29158 935.897 7.43394 936.018 7.62291C936.141 7.71866 936.203 7.8144 936.203 7.91015H936.566V8.1936C936.687 8.1936 936.808 8.24148 936.929 8.33722C937.05 8.43045 937.11 8.52493 937.11 8.62068C937.234 8.62068 937.356 8.66855 937.477 8.7643V9.04775C937.598 9.04775 937.719 9.09562 937.84 9.19137V9.4786C937.96 9.57183 938.081 9.61844 938.202 9.61844C938.323 9.71419 938.384 9.80993 938.384 9.90568L938.747 10.1891L939.476 11.0471C939.718 11.3318 940.021 11.6165 940.387 11.9012C940.631 12.2817 940.874 12.6143 941.116 12.899L941.846 13.7569C942.088 14.0416 942.331 14.3742 942.575 14.7547C942.817 15.0394 943.119 15.3254 943.482 15.6126L944.212 16.7502L944.941 17.6081V17.3209H944.945ZM807.374 81.6881L790.643 45.3679L767.35 92.724C766.904 93.7242 766.458 94.6892 766.012 95.619C765.654 96.5487 765.251 97.4772 764.803 98.4044C764.45 99.3341 764.049 100.263 763.601 101.19C763.243 102.12 762.887 102.976 762.531 103.76H755.838L755.57 102.906C755.479 102.692 755.434 102.441 755.434 102.154C755.346 101.939 755.257 101.69 755.169 101.405L754.901 100.547C754.81 99.9754 754.675 99.44 754.496 98.9411C754.408 98.3691 754.275 97.8337 754.096 97.3348C754.008 96.9771 753.874 96.6193 753.695 96.2615C753.605 95.9037 753.471 95.5472 753.295 95.1919L753.026 94.1186C752.936 93.6902 752.846 93.2972 752.758 92.9394L736.828 37.5445C736.47 36.5442 736.068 35.6876 735.622 34.9745C735.176 34.259 734.641 33.7588 734.016 33.4741C733.391 33.1163 732.766 32.8656 732.141 32.722C731.519 32.5809 730.851 32.4738 730.138 32.4007L726.385 31.8678V28.6553C726.834 28.7964 727.281 28.9023 727.727 28.9728H732.009L734.821 29.1882H751.688L754.5 28.9728H757.977C758.247 28.9728 758.515 28.9375 758.782 28.867H760.12V31.8678L754.5 32.1891C753.785 32.3302 753.114 32.4726 752.49 32.6162C751.865 32.7598 751.329 32.9387 750.883 33.1528C750.437 33.367 750.081 33.7235 749.814 34.2224C749.637 34.7238 749.549 35.3663 749.549 36.1499V37.0078C749.549 37.222 749.593 37.4727 749.681 37.7599C749.681 38.0447 749.726 38.3306 749.814 38.6179C749.904 38.832 749.993 39.1168 750.078 39.472L763.333 87.0473H763.601L780.068 53.6184L780.601 52.7604L781.137 51.6909L781.674 50.6175L782.207 49.5479C783.011 47.8346 783.815 46.0835 784.618 44.2946L787.294 38.9391C788.098 37.0822 788.902 35.2605 789.705 33.4741C790.507 31.6171 791.309 29.7955 792.113 28.0091L796.399 27.7974C796.575 28.4399 796.709 29.0471 796.799 29.6191C796.976 30.1885 797.199 30.7592 797.468 31.3312C797.645 31.9031 797.868 32.4751 798.137 33.047L798.942 34.7591V35.0803C799.031 35.224 799.119 35.331 799.207 35.4016V35.8324C799.298 35.903 799.387 36.0101 799.475 36.1537L799.744 36.7962L800.008 37.4387L800.28 38.0812L800.545 38.5083C800.545 38.7224 800.59 38.9366 800.681 39.1508L800.945 39.5816C801.036 39.7227 801.126 39.9016 801.214 40.1183L801.482 40.5454C801.482 40.689 801.527 40.8679 801.618 41.0821L801.883 41.5091L822.632 87.7994H822.9L840.436 35.7228V35.8324C840.436 35.7594 840.482 35.6876 840.573 35.617V34.8687C840.573 34.4404 840.438 34.0826 840.168 33.7953C839.901 33.5106 839.499 33.2965 838.963 33.1528C838.428 33.0117 837.761 32.8694 836.959 32.7258C836.244 32.5822 835.349 32.4751 834.276 32.4045L828.924 31.8678V28.6553L829.461 28.867H830.13C830.309 28.9375 830.488 28.9728 830.667 28.9728C830.846 28.9728 831.023 28.9728 831.2 28.9728H833.611L835.754 29.1882H848.868C849.226 29.1882 849.629 29.153 850.078 29.0824H851.147C851.593 29.0093 851.995 28.9728 852.353 28.9728H855.161C855.431 28.9728 855.654 28.9375 855.83 28.867H857.039V31.8678L852.754 32.1891C852.041 32.3302 851.416 32.5091 850.879 32.7258C850.345 32.8669 849.854 33.081 849.405 33.3683C849.05 33.653 848.693 33.9742 848.335 34.332C848.068 34.6898 847.845 35.0829 847.667 35.5112L827.182 92.9432C827.094 93.2279 827.006 93.4773 826.918 93.6915C826.827 93.9057 826.781 94.1198 826.781 94.334L826.517 94.9765L826.249 95.619L825.98 96.2615C825.98 96.4756 825.935 96.6545 825.844 96.7982L825.58 97.4407C825.58 97.6548 825.534 97.869 825.444 98.0832C825.267 98.5115 825.088 98.9764 824.907 99.4778C824.731 99.9061 824.553 100.37 824.374 100.869C824.283 101.37 824.148 101.87 823.97 102.369C823.881 102.797 823.748 103.262 823.569 103.764H816.879L816.074 101.836C815.805 101.191 815.581 100.547 815.402 99.9048C815.135 99.2623 814.867 98.6551 814.6 98.0832C814.331 97.4407 814.062 96.8334 813.795 96.2615L812.994 94.5456C812.725 93.9762 812.502 93.369 812.325 92.724L811.52 91.0119L810.719 89.296C810.628 89.0113 810.493 88.7253 810.315 88.4381C810.138 88.1534 810.005 87.8321 809.914 87.4743L809.377 86.6164C809.289 86.2612 809.156 85.9399 808.977 85.6527C808.707 85.0807 808.439 84.4735 808.172 83.831L807.37 81.9035L807.374 81.6881ZM689.77 27.1738L685.439 27.393L684.358 29.3319L683.546 31.2707L682.461 33.2058C682.192 33.852 681.875 34.4983 681.516 35.1446L680.972 36.2179L680.431 37.2951C680.159 37.6541 679.932 38.0132 679.751 38.376L679.214 39.4493C678.851 40.1674 678.447 40.8855 677.994 41.6036C677.634 42.3217 677.226 43.036 676.777 43.7541L675.692 45.4775L674.879 47.1971L673.798 48.9206L672.986 50.4323L648.888 94.2395C648.529 94.9576 648.076 95.6001 647.535 96.1783C647.082 96.7528 646.545 97.2895 645.91 97.7921C645.296 98.2852 644.612 98.6851 643.881 98.9789C643.15 99.2671 642.361 99.3772 641.579 99.3001L636.567 99.6214V102.853H637.928C638.098 102.782 638.28 102.745 638.465 102.743H641.715L644.153 102.528H658.908L661.614 102.743H665.272C665.54 102.743 665.812 102.781 666.085 102.857H667.706V99.6214L662.698 99.5118C661.749 99.4517 660.8 99.3811 659.852 99.3001C659.161 99.1877 658.482 99.0066 657.827 98.7597C657.345 98.6547 656.914 98.3879 656.606 98.0038C656.33 97.5527 656.19 97.0319 656.201 96.5034C656.201 96.2879 656.243 95.9969 656.334 95.6379C656.424 95.207 656.561 94.7422 656.742 94.2395C656.92 93.665 657.15 93.0906 657.422 92.5161L658.231 90.7965V90.6831C658.231 90.615 658.276 90.5432 658.363 90.4714C658.454 90.3958 658.503 90.3278 658.503 90.256V89.9347C658.574 89.8125 658.665 89.7027 658.771 89.6097L659.044 88.9672C659.146 88.7311 659.284 88.5119 659.452 88.3172C659.542 88.1735 659.629 87.9959 659.72 87.7805L659.988 87.138C660.065 86.9503 660.157 86.7695 660.264 86.5975C660.339 86.4104 660.429 86.2297 660.533 86.0571C660.533 85.9135 660.578 85.7698 660.669 85.6262C660.774 85.4549 660.865 85.2754 660.941 85.0895L664.732 77.8784H703.716L709.948 90.4714V90.581H710.081V91.0081C710.156 91.0756 710.252 91.1156 710.353 91.1215V91.439H710.489V91.5486L711.298 93.272C711.57 93.7746 711.842 94.3113 712.11 94.8858C712.292 95.3884 712.428 95.8533 712.518 96.2842C712.7 96.6432 712.791 97.0022 712.791 97.3613C712.791 97.6485 712.609 97.9358 712.246 98.223C711.908 98.5457 711.487 98.7682 711.029 98.8655C710.466 99.0882 709.875 99.2344 709.272 99.3001C708.641 99.3719 707.961 99.3719 707.239 99.3001L700.878 99.6214V102.853H702.639C702.998 102.781 703.312 102.743 703.584 102.743H707.779L710.761 102.528H727.95L730.932 102.743H734.583C734.855 102.743 735.127 102.781 735.395 102.857H736.888V99.6214L732.281 99.5118C731.679 99.4479 731.088 99.3043 730.524 99.0847C730.058 98.8603 729.606 98.6079 729.171 98.3288C728.784 97.9487 728.376 97.5904 727.95 97.2555C727.572 96.8016 727.212 96.3339 726.869 95.8533C726.671 95.6139 726.489 95.3613 726.325 95.0974L725.788 94.2395L725.244 93.3778C725.078 93.0455 724.896 92.7213 724.7 92.4065C724.536 92.0758 724.357 91.7529 724.163 91.439C723.997 91.1079 723.815 90.785 723.619 90.4714L723.35 90.0406L723.074 89.3981L722.81 88.9634L722.538 88.3209L689.77 27.1738ZM684.226 41.4902L701.282 73.5737H667.033L684.226 41.4902Z" fill="white"/>
</g>
<defs>
<clipPath id="clip0_574_5">
<rect width="1024" height="103.76" fill="white"/>
</clipPath>
</defs>
</svg>
